<svg xmlns="http://www.w3.org/2000/svg" viewBox="0 0 200 200" width="200" height="200">
  <!-- Background circle -->
  <circle cx="100" cy="100" r="100" fill="#4CAF50"/>
  
  <!-- Coffee cup -->
  <g transform="translate(100, 100)">
    <!-- Cup body -->
    <path d="M-25 -10 L-25 25 Q-25 35 -15 35 L15 35 Q25 35 25 25 L25 -10 Z" fill="white"/>
    
    <!-- Cup handle -->
    <path d="M25 5 Q35 5 35 15 Q35 25 25 25" stroke="white" stroke-width="3" fill="none"/>
    
    <!-- Saucer -->
    <ellipse cx="0" cy="35" rx="35" ry="8" fill="white" opacity="0.8"/>
    
    <!-- Coffee liquid -->
    <path d="M-22 -7 L-22 22 Q-22 30 -15 30 L15 30 Q22 30 22 22 L22 -7 Z" fill="#8D6E63"/>
    
    <!-- Steam lines -->
    <g stroke="white" stroke-width="2" fill="none" opacity="0.7">
      <path d="M-10 -25 Q-8 -35 -10 -45">
        <animate attributeName="opacity" values="0.7;0.3;0.7" dur="2s" repeatCount="indefinite"/>
      </path>
      <path d="M0 -25 Q2 -35 0 -45">
        <animate attributeName="opacity" values="0.3;0.7;0.3" dur="2s" repeatCount="indefinite" begin="0.5s"/>
      </path>
      <path d="M10 -25 Q12 -35 10 -45">
        <animate attributeName="opacity" values="0.7;0.3;0.7" dur="2s" repeatCount="indefinite" begin="1s"/>
      </path>
    </g>
  </g>
</svg>